<svg width="256" height="256" viewBox="0 0 256 256" fill="none" xmlns="http://www.w3.org/2000/svg">
<path d="M24 84.1187C24 67.3088 37.6287 53.6816 54.4385 53.6816H174.425C191.235 53.6816 204.865 67.3088 204.865 84.1187V219.361C204.865 236.171 191.235 249.798 174.425 249.798H54.4385C37.6287 249.798 24 236.171 24 219.361V84.1187Z" fill="#F3BC2D"/>
<path d="M44.447 84.1187C44.447 67.3088 58.0689 53.6816 74.8788 53.6816H194.873C211.683 53.6816 225.305 67.3088 225.305 84.1187V219.361C225.305 236.171 211.683 249.798 194.873 249.798H74.8788C58.0689 249.798 44.447 236.171 44.447 219.361V84.1187Z" fill="#FFCD4B"/>
<path d="M82.5828 87.4896C83.5879 63.6595 95.6946 16 136.05 16C176.398 16 189.855 63.2139 191.536 87.9104" stroke="white" stroke-width="1.6742" stroke-linecap="round"/>
<path d="M136.898 211.952H95.5818V105.178H136.478C147.519 105.178 157.06 107.316 165.102 111.59C173.173 115.831 179.399 121.949 183.764 129.942C188.167 137.902 190.373 147.443 190.373 158.565C190.373 169.688 188.19 179.246 183.817 187.24C179.451 195.199 173.263 201.316 165.259 205.592C157.256 209.832 147.804 211.952 136.898 211.952ZM124.731 187.344H135.847C141.158 187.344 145.689 186.493 149.424 184.789C153.197 183.087 156.07 180.149 158.028 175.979C160.016 171.808 161.014 166.003 161.014 158.565C161.014 151.127 160.001 145.323 157.976 141.152C155.98 136.981 153.047 134.044 149.162 132.341C145.321 130.638 140.603 129.786 135.007 129.786H124.731V187.344Z" fill="#252B95" stroke="#FFCD4B" stroke-width="0.726257"/>
</svg>
