<?xml version="1.0" encoding="UTF-8"?>
<!-- Generated by Pixelmator Pro 3.6.14 -->
<svg width="214" height="214" viewBox="0 0 214 214" xmlns="http://www.w3.org/2000/svg">
    <g id="Group">
        <path id="Path" fill="#00a68b" stroke="none" d="M 192.720001 87.580002 L 192.720001 166.720001 C 192.725723 171.470856 191.993668 176.193802 190.550003 180.720001 C 184.405029 199.917374 166.586792 212.966049 146.429993 213.030014 L 21 213.030014 L 21 87.580002 C 21.071384 62.04274 41.752762 41.356903 67.290001 41.279999 L 146.429993 41.279999 C 171.964981 41.362366 192.643158 62.045013 192.720001 87.580002 Z"/>
        <path id="path1" fill="#00a68b" stroke="none" d="M 147.460007 41.75 C 147.484711 41.932495 147.484711 42.117493 147.460007 42.300003 L 135.480011 42.300003 C 135.455307 42.117493 135.455307 41.932495 135.480011 41.75 C 135.480011 25.965698 122.684303 13.169998 106.900002 13.169998 C 91.1157 13.169998 78.32 25.965698 78.32 41.75 C 78.329971 41.933197 78.329971 42.116806 78.32 42.300003 L 66.32 42.300003 C 66.296562 42.117416 66.296562 41.932587 66.32 41.75 C 66.668037 19.572906 84.745178 1.777237 106.925003 1.777237 C 129.104828 1.777237 147.181961 19.572906 147.530014 41.75 Z"/>
        <path id="path2" fill="#ffffff" stroke="none" d="M 153.160004 135.070007 C 153.160004 160.806473 132.296478 181.669998 106.559998 181.669998 C 80.823532 181.669998 59.959999 160.806473 59.959999 135.070007"/>
    </g>
</svg>
